<mxfile host="app.diagrams.net" agent="Mozilla/5.0 (Windows NT 10.0; Win64; x64) AppleWebKit/537.36 (KHTML, like Gecko) Chrome/129.0.0.0 Safari/537.36" version="24.7.17">
  <diagram name="1 oldal" id="ex3Txr2FjhUjlNpyfDLN">
    <mxGraphModel dx="1541" dy="1957" grid="1" gridSize="10" guides="1" tooltips="1" connect="1" arrows="1" fold="1" page="1" pageScale="1" pageWidth="827" pageHeight="1169" math="0" shadow="0">
      <root>
        <mxCell id="0" />
        <mxCell id="1" parent="0" />
        <mxCell id="LWF4Wzzg6qmSSUHvdloJ-1" value="Termék" style="rounded=0;whiteSpace=wrap;html=1;" parent="1" vertex="1">
          <mxGeometry x="100" y="300" width="180" height="80" as="geometry" />
        </mxCell>
        <mxCell id="LWF4Wzzg6qmSSUHvdloJ-2" value="Gyártó" style="rounded=0;whiteSpace=wrap;html=1;" parent="1" vertex="1">
          <mxGeometry x="540" y="300" width="180" height="80" as="geometry" />
        </mxCell>
        <mxCell id="LWF4Wzzg6qmSSUHvdloJ-19" value="t-gy" style="rhombus;whiteSpace=wrap;html=1;" parent="1" vertex="1">
          <mxGeometry x="354" y="300" width="80" height="80" as="geometry" />
        </mxCell>
        <mxCell id="LWF4Wzzg6qmSSUHvdloJ-22" value="" style="endArrow=classic;html=1;rounded=0;entryX=0;entryY=0.5;entryDx=0;entryDy=0;" parent="1" target="LWF4Wzzg6qmSSUHvdloJ-2" edge="1">
          <mxGeometry width="50" height="50" relative="1" as="geometry">
            <mxPoint x="434" y="340" as="sourcePoint" />
            <mxPoint x="484" y="290" as="targetPoint" />
          </mxGeometry>
        </mxCell>
        <mxCell id="LWF4Wzzg6qmSSUHvdloJ-23" value="" style="endArrow=classic;html=1;rounded=0;entryX=1;entryY=0.5;entryDx=0;entryDy=0;" parent="1" target="LWF4Wzzg6qmSSUHvdloJ-1" edge="1">
          <mxGeometry width="50" height="50" relative="1" as="geometry">
            <mxPoint x="354" y="340" as="sourcePoint" />
            <mxPoint x="404" y="290" as="targetPoint" />
          </mxGeometry>
        </mxCell>
        <mxCell id="LWF4Wzzg6qmSSUHvdloJ-24" value="" style="endArrow=classic;html=1;rounded=0;" parent="1" edge="1">
          <mxGeometry width="50" height="50" relative="1" as="geometry">
            <mxPoint x="350" y="340" as="sourcePoint" />
            <mxPoint x="300" y="340" as="targetPoint" />
          </mxGeometry>
        </mxCell>
        <mxCell id="LWF4Wzzg6qmSSUHvdloJ-25" value="&lt;u&gt;tkód&lt;/u&gt;" style="ellipse;whiteSpace=wrap;html=1;" parent="1" vertex="1">
          <mxGeometry x="10" y="400" width="100" height="30" as="geometry" />
        </mxCell>
        <mxCell id="LWF4Wzzg6qmSSUHvdloJ-26" value="név" style="ellipse;whiteSpace=wrap;html=1;" parent="1" vertex="1">
          <mxGeometry x="110" y="430" width="100" height="30" as="geometry" />
        </mxCell>
        <mxCell id="LWF4Wzzg6qmSSUHvdloJ-27" value="ear" style="ellipse;whiteSpace=wrap;html=1;" parent="1" vertex="1">
          <mxGeometry x="220" y="430" width="100" height="30" as="geometry" />
        </mxCell>
        <mxCell id="LWF4Wzzg6qmSSUHvdloJ-28" value="&lt;u&gt;adószám&lt;/u&gt;" style="ellipse;whiteSpace=wrap;html=1;" parent="1" vertex="1">
          <mxGeometry x="450" y="400" width="100" height="30" as="geometry" />
        </mxCell>
        <mxCell id="LWF4Wzzg6qmSSUHvdloJ-29" value="postaicím" style="ellipse;whiteSpace=wrap;html=1;" parent="1" vertex="1">
          <mxGeometry x="540" y="440" width="100" height="30" as="geometry" />
        </mxCell>
        <mxCell id="LWF4Wzzg6qmSSUHvdloJ-30" value="telephely" style="ellipse;whiteSpace=wrap;html=1;" parent="1" vertex="1">
          <mxGeometry x="727" y="400" width="100" height="30" as="geometry" />
        </mxCell>
        <mxCell id="LWF4Wzzg6qmSSUHvdloJ-39" value="név" style="ellipse;whiteSpace=wrap;html=1;" parent="1" vertex="1">
          <mxGeometry x="650" y="440" width="100" height="30" as="geometry" />
        </mxCell>
        <mxCell id="LWF4Wzzg6qmSSUHvdloJ-40" value="irszám" style="ellipse;whiteSpace=wrap;html=1;" parent="1" vertex="1">
          <mxGeometry x="440" y="490" width="86" height="30" as="geometry" />
        </mxCell>
        <mxCell id="LWF4Wzzg6qmSSUHvdloJ-41" value="kozterulet" style="ellipse;whiteSpace=wrap;html=1;" parent="1" vertex="1">
          <mxGeometry x="526" y="520" width="86" height="30" as="geometry" />
        </mxCell>
        <mxCell id="LWF4Wzzg6qmSSUHvdloJ-42" value="hazszam" style="ellipse;whiteSpace=wrap;html=1;" parent="1" vertex="1">
          <mxGeometry x="612" y="500" width="76" height="30" as="geometry" />
        </mxCell>
        <mxCell id="LWF4Wzzg6qmSSUHvdloJ-44" value="Alkatrész" style="rounded=0;whiteSpace=wrap;html=1;" parent="1" vertex="1">
          <mxGeometry x="100" y="10" width="180" height="80" as="geometry" />
        </mxCell>
        <mxCell id="LWF4Wzzg6qmSSUHvdloJ-46" value="a-t" style="rhombus;whiteSpace=wrap;html=1;" parent="1" vertex="1">
          <mxGeometry x="150" y="150" width="80" height="80" as="geometry" />
        </mxCell>
        <mxCell id="LWF4Wzzg6qmSSUHvdloJ-49" value="" style="endArrow=classic;html=1;rounded=0;entryX=0.5;entryY=1;entryDx=0;entryDy=0;" parent="1" target="LWF4Wzzg6qmSSUHvdloJ-44" edge="1">
          <mxGeometry width="50" height="50" relative="1" as="geometry">
            <mxPoint x="190" y="150" as="sourcePoint" />
            <mxPoint x="240" y="100" as="targetPoint" />
          </mxGeometry>
        </mxCell>
        <mxCell id="LWF4Wzzg6qmSSUHvdloJ-50" value="" style="endArrow=classic;html=1;rounded=0;" parent="1" edge="1">
          <mxGeometry width="50" height="50" relative="1" as="geometry">
            <mxPoint x="189.71" y="230" as="sourcePoint" />
            <mxPoint x="190" y="300" as="targetPoint" />
          </mxGeometry>
        </mxCell>
        <mxCell id="LWF4Wzzg6qmSSUHvdloJ-51" value="" style="endArrow=classic;html=1;rounded=0;" parent="1" edge="1">
          <mxGeometry width="50" height="50" relative="1" as="geometry">
            <mxPoint x="189.71" y="230" as="sourcePoint" />
            <mxPoint x="190" y="290" as="targetPoint" />
          </mxGeometry>
        </mxCell>
        <mxCell id="LWF4Wzzg6qmSSUHvdloJ-52" value="nev/tipus" style="ellipse;whiteSpace=wrap;html=1;" parent="1" vertex="1">
          <mxGeometry x="310" y="30" width="80" height="30" as="geometry" />
        </mxCell>
        <mxCell id="LWF4Wzzg6qmSSUHvdloJ-53" value="" style="endArrow=classic;html=1;rounded=0;" parent="1" edge="1">
          <mxGeometry width="50" height="50" relative="1" as="geometry">
            <mxPoint x="190" y="150" as="sourcePoint" />
            <mxPoint x="190" y="100" as="targetPoint" />
          </mxGeometry>
        </mxCell>
        <mxCell id="LWF4Wzzg6qmSSUHvdloJ-55" value="&lt;u&gt;alk_id&lt;/u&gt;" style="ellipse;whiteSpace=wrap;html=1;" parent="1" vertex="1">
          <mxGeometry y="20" width="80" height="30" as="geometry" />
        </mxCell>
        <mxCell id="LWF4Wzzg6qmSSUHvdloJ-56" value="&lt;u&gt;egység_db&lt;/u&gt;" style="ellipse;whiteSpace=wrap;html=1;fillColor=none;" parent="1" vertex="1">
          <mxGeometry x="10" y="250" width="100" height="30" as="geometry" />
        </mxCell>
        <mxCell id="LWF4Wzzg6qmSSUHvdloJ-58" value="" style="ellipse;whiteSpace=wrap;html=1;fillColor=none;" parent="1" vertex="1">
          <mxGeometry x="5" y="245" width="110" height="40" as="geometry" />
        </mxCell>
        <mxCell id="LWF4Wzzg6qmSSUHvdloJ-59" value="" style="endArrow=none;html=1;rounded=0;entryX=0;entryY=1;entryDx=0;entryDy=0;" parent="1" target="LWF4Wzzg6qmSSUHvdloJ-1" edge="1">
          <mxGeometry width="50" height="50" relative="1" as="geometry">
            <mxPoint x="80" y="400" as="sourcePoint" />
            <mxPoint x="130" y="350" as="targetPoint" />
          </mxGeometry>
        </mxCell>
        <mxCell id="LWF4Wzzg6qmSSUHvdloJ-60" value="" style="endArrow=none;html=1;rounded=0;entryX=0.389;entryY=0.969;entryDx=0;entryDy=0;entryPerimeter=0;" parent="1" target="LWF4Wzzg6qmSSUHvdloJ-1" edge="1">
          <mxGeometry width="50" height="50" relative="1" as="geometry">
            <mxPoint x="160" y="430" as="sourcePoint" />
            <mxPoint x="210" y="380" as="targetPoint" />
          </mxGeometry>
        </mxCell>
        <mxCell id="LWF4Wzzg6qmSSUHvdloJ-61" value="" style="endArrow=none;html=1;rounded=0;entryX=0.815;entryY=1.01;entryDx=0;entryDy=0;entryPerimeter=0;" parent="1" target="LWF4Wzzg6qmSSUHvdloJ-1" edge="1">
          <mxGeometry width="50" height="50" relative="1" as="geometry">
            <mxPoint x="270" y="430" as="sourcePoint" />
            <mxPoint x="320" y="380" as="targetPoint" />
          </mxGeometry>
        </mxCell>
        <mxCell id="LWF4Wzzg6qmSSUHvdloJ-63" value="" style="endArrow=none;html=1;rounded=0;entryX=0.005;entryY=0.833;entryDx=0;entryDy=0;entryPerimeter=0;" parent="1" target="LWF4Wzzg6qmSSUHvdloJ-2" edge="1">
          <mxGeometry width="50" height="50" relative="1" as="geometry">
            <mxPoint x="500" y="400" as="sourcePoint" />
            <mxPoint x="550" y="350" as="targetPoint" />
          </mxGeometry>
        </mxCell>
        <mxCell id="LWF4Wzzg6qmSSUHvdloJ-64" value="" style="endArrow=none;html=1;rounded=0;entryX=0.301;entryY=1.042;entryDx=0;entryDy=0;entryPerimeter=0;" parent="1" target="LWF4Wzzg6qmSSUHvdloJ-2" edge="1">
          <mxGeometry width="50" height="50" relative="1" as="geometry">
            <mxPoint x="590" y="440" as="sourcePoint" />
            <mxPoint x="640" y="390" as="targetPoint" />
          </mxGeometry>
        </mxCell>
        <mxCell id="LWF4Wzzg6qmSSUHvdloJ-65" value="" style="endArrow=none;html=1;rounded=0;entryX=0.75;entryY=1;entryDx=0;entryDy=0;" parent="1" target="LWF4Wzzg6qmSSUHvdloJ-2" edge="1">
          <mxGeometry width="50" height="50" relative="1" as="geometry">
            <mxPoint x="700" y="440" as="sourcePoint" />
            <mxPoint x="750" y="390" as="targetPoint" />
          </mxGeometry>
        </mxCell>
        <mxCell id="LWF4Wzzg6qmSSUHvdloJ-66" value="" style="endArrow=none;html=1;rounded=0;entryX=1;entryY=0.75;entryDx=0;entryDy=0;" parent="1" target="LWF4Wzzg6qmSSUHvdloJ-2" edge="1">
          <mxGeometry width="50" height="50" relative="1" as="geometry">
            <mxPoint x="770" y="400" as="sourcePoint" />
            <mxPoint x="820" y="350" as="targetPoint" />
          </mxGeometry>
        </mxCell>
        <mxCell id="LWF4Wzzg6qmSSUHvdloJ-67" value="" style="endArrow=none;html=1;rounded=0;entryX=0.058;entryY=0.75;entryDx=0;entryDy=0;entryPerimeter=0;" parent="1" target="LWF4Wzzg6qmSSUHvdloJ-29" edge="1">
          <mxGeometry width="50" height="50" relative="1" as="geometry">
            <mxPoint x="490" y="490" as="sourcePoint" />
            <mxPoint x="540" y="440" as="targetPoint" />
          </mxGeometry>
        </mxCell>
        <mxCell id="LWF4Wzzg6qmSSUHvdloJ-68" value="" style="endArrow=none;html=1;rounded=0;entryX=0.425;entryY=1.083;entryDx=0;entryDy=0;entryPerimeter=0;" parent="1" target="LWF4Wzzg6qmSSUHvdloJ-29" edge="1">
          <mxGeometry width="50" height="50" relative="1" as="geometry">
            <mxPoint x="570" y="520" as="sourcePoint" />
            <mxPoint x="620" y="470" as="targetPoint" />
          </mxGeometry>
        </mxCell>
        <mxCell id="LWF4Wzzg6qmSSUHvdloJ-69" value="" style="endArrow=none;html=1;rounded=0;entryX=0.775;entryY=0.917;entryDx=0;entryDy=0;entryPerimeter=0;" parent="1" target="LWF4Wzzg6qmSSUHvdloJ-29" edge="1">
          <mxGeometry width="50" height="50" relative="1" as="geometry">
            <mxPoint x="650" y="500" as="sourcePoint" />
            <mxPoint x="700" y="450" as="targetPoint" />
          </mxGeometry>
        </mxCell>
        <mxCell id="LWF4Wzzg6qmSSUHvdloJ-70" value="" style="endArrow=none;html=1;rounded=0;entryX=0.056;entryY=0;entryDx=0;entryDy=0;entryPerimeter=0;" parent="1" target="LWF4Wzzg6qmSSUHvdloJ-1" edge="1">
          <mxGeometry width="50" height="50" relative="1" as="geometry">
            <mxPoint x="100" y="280" as="sourcePoint" />
            <mxPoint x="150" y="230" as="targetPoint" />
          </mxGeometry>
        </mxCell>
        <mxCell id="LWF4Wzzg6qmSSUHvdloJ-71" value="" style="endArrow=none;html=1;rounded=0;entryX=0;entryY=0.5;entryDx=0;entryDy=0;" parent="1" target="LWF4Wzzg6qmSSUHvdloJ-44" edge="1">
          <mxGeometry width="50" height="50" relative="1" as="geometry">
            <mxPoint x="80" y="40" as="sourcePoint" />
            <mxPoint x="130" y="-10" as="targetPoint" />
          </mxGeometry>
        </mxCell>
        <mxCell id="LWF4Wzzg6qmSSUHvdloJ-72" value="" style="endArrow=none;html=1;rounded=0;exitX=1;exitY=0.365;exitDx=0;exitDy=0;exitPerimeter=0;" parent="1" source="LWF4Wzzg6qmSSUHvdloJ-44" edge="1">
          <mxGeometry width="50" height="50" relative="1" as="geometry">
            <mxPoint x="260" y="90" as="sourcePoint" />
            <mxPoint x="310" y="40" as="targetPoint" />
          </mxGeometry>
        </mxCell>
        <mxCell id="BNZaZ487fC2I3IFNYC7y-1" value="Termék" style="shape=table;startSize=30;container=1;collapsible=1;childLayout=tableLayout;fixedRows=1;rowLines=0;fontStyle=1;align=center;resizeLast=1;html=1;" vertex="1" parent="1">
          <mxGeometry x="180" y="-220" width="180" height="180" as="geometry" />
        </mxCell>
        <mxCell id="BNZaZ487fC2I3IFNYC7y-2" value="" style="shape=tableRow;horizontal=0;startSize=0;swimlaneHead=0;swimlaneBody=0;fillColor=none;collapsible=0;dropTarget=0;points=[[0,0.5],[1,0.5]];portConstraint=eastwest;top=0;left=0;right=0;bottom=1;" vertex="1" parent="BNZaZ487fC2I3IFNYC7y-1">
          <mxGeometry y="30" width="180" height="30" as="geometry" />
        </mxCell>
        <mxCell id="BNZaZ487fC2I3IFNYC7y-3" value="PK" style="shape=partialRectangle;connectable=0;fillColor=none;top=0;left=0;bottom=0;right=0;fontStyle=1;overflow=hidden;whiteSpace=wrap;html=1;" vertex="1" parent="BNZaZ487fC2I3IFNYC7y-2">
          <mxGeometry width="30" height="30" as="geometry">
            <mxRectangle width="30" height="30" as="alternateBounds" />
          </mxGeometry>
        </mxCell>
        <mxCell id="BNZaZ487fC2I3IFNYC7y-4" value="tkód" style="shape=partialRectangle;connectable=0;fillColor=none;top=0;left=0;bottom=0;right=0;align=left;spacingLeft=6;fontStyle=5;overflow=hidden;whiteSpace=wrap;html=1;" vertex="1" parent="BNZaZ487fC2I3IFNYC7y-2">
          <mxGeometry x="30" width="150" height="30" as="geometry">
            <mxRectangle width="150" height="30" as="alternateBounds" />
          </mxGeometry>
        </mxCell>
        <mxCell id="BNZaZ487fC2I3IFNYC7y-5" value="" style="shape=tableRow;horizontal=0;startSize=0;swimlaneHead=0;swimlaneBody=0;fillColor=none;collapsible=0;dropTarget=0;points=[[0,0.5],[1,0.5]];portConstraint=eastwest;top=0;left=0;right=0;bottom=0;" vertex="1" parent="BNZaZ487fC2I3IFNYC7y-1">
          <mxGeometry y="60" width="180" height="30" as="geometry" />
        </mxCell>
        <mxCell id="BNZaZ487fC2I3IFNYC7y-6" value="" style="shape=partialRectangle;connectable=0;fillColor=none;top=0;left=0;bottom=0;right=0;editable=1;overflow=hidden;whiteSpace=wrap;html=1;" vertex="1" parent="BNZaZ487fC2I3IFNYC7y-5">
          <mxGeometry width="30" height="30" as="geometry">
            <mxRectangle width="30" height="30" as="alternateBounds" />
          </mxGeometry>
        </mxCell>
        <mxCell id="BNZaZ487fC2I3IFNYC7y-7" value="név,C(30)" style="shape=partialRectangle;connectable=0;fillColor=none;top=0;left=0;bottom=0;right=0;align=left;spacingLeft=6;overflow=hidden;whiteSpace=wrap;html=1;" vertex="1" parent="BNZaZ487fC2I3IFNYC7y-5">
          <mxGeometry x="30" width="150" height="30" as="geometry">
            <mxRectangle width="150" height="30" as="alternateBounds" />
          </mxGeometry>
        </mxCell>
        <mxCell id="BNZaZ487fC2I3IFNYC7y-8" value="" style="shape=tableRow;horizontal=0;startSize=0;swimlaneHead=0;swimlaneBody=0;fillColor=none;collapsible=0;dropTarget=0;points=[[0,0.5],[1,0.5]];portConstraint=eastwest;top=0;left=0;right=0;bottom=0;" vertex="1" parent="BNZaZ487fC2I3IFNYC7y-1">
          <mxGeometry y="90" width="180" height="30" as="geometry" />
        </mxCell>
        <mxCell id="BNZaZ487fC2I3IFNYC7y-9" value="" style="shape=partialRectangle;connectable=0;fillColor=none;top=0;left=0;bottom=0;right=0;editable=1;overflow=hidden;whiteSpace=wrap;html=1;" vertex="1" parent="BNZaZ487fC2I3IFNYC7y-8">
          <mxGeometry width="30" height="30" as="geometry">
            <mxRectangle width="30" height="30" as="alternateBounds" />
          </mxGeometry>
        </mxCell>
        <mxCell id="BNZaZ487fC2I3IFNYC7y-10" value="ear,NN" style="shape=partialRectangle;connectable=0;fillColor=none;top=0;left=0;bottom=0;right=0;align=left;spacingLeft=6;overflow=hidden;whiteSpace=wrap;html=1;" vertex="1" parent="BNZaZ487fC2I3IFNYC7y-8">
          <mxGeometry x="30" width="150" height="30" as="geometry">
            <mxRectangle width="150" height="30" as="alternateBounds" />
          </mxGeometry>
        </mxCell>
        <mxCell id="BNZaZ487fC2I3IFNYC7y-27" value="" style="shape=tableRow;horizontal=0;startSize=0;swimlaneHead=0;swimlaneBody=0;fillColor=none;collapsible=0;dropTarget=0;points=[[0,0.5],[1,0.5]];portConstraint=eastwest;top=0;left=0;right=0;bottom=0;" vertex="1" parent="BNZaZ487fC2I3IFNYC7y-1">
          <mxGeometry y="120" width="180" height="30" as="geometry" />
        </mxCell>
        <mxCell id="BNZaZ487fC2I3IFNYC7y-28" value="FK" style="shape=partialRectangle;connectable=0;fillColor=none;top=0;left=0;bottom=0;right=0;editable=1;overflow=hidden;whiteSpace=wrap;html=1;" vertex="1" parent="BNZaZ487fC2I3IFNYC7y-27">
          <mxGeometry width="30" height="30" as="geometry">
            <mxRectangle width="30" height="30" as="alternateBounds" />
          </mxGeometry>
        </mxCell>
        <mxCell id="BNZaZ487fC2I3IFNYC7y-29" value="GyártóID" style="shape=partialRectangle;connectable=0;fillColor=none;top=0;left=0;bottom=0;right=0;align=left;spacingLeft=6;overflow=hidden;whiteSpace=wrap;html=1;" vertex="1" parent="BNZaZ487fC2I3IFNYC7y-27">
          <mxGeometry x="30" width="150" height="30" as="geometry">
            <mxRectangle width="150" height="30" as="alternateBounds" />
          </mxGeometry>
        </mxCell>
        <mxCell id="BNZaZ487fC2I3IFNYC7y-44" value="" style="shape=tableRow;horizontal=0;startSize=0;swimlaneHead=0;swimlaneBody=0;fillColor=none;collapsible=0;dropTarget=0;points=[[0,0.5],[1,0.5]];portConstraint=eastwest;top=0;left=0;right=0;bottom=0;" vertex="1" parent="BNZaZ487fC2I3IFNYC7y-1">
          <mxGeometry y="150" width="180" height="30" as="geometry" />
        </mxCell>
        <mxCell id="BNZaZ487fC2I3IFNYC7y-45" value="FK" style="shape=partialRectangle;connectable=0;fillColor=none;top=0;left=0;bottom=0;right=0;editable=1;overflow=hidden;whiteSpace=wrap;html=1;" vertex="1" parent="BNZaZ487fC2I3IFNYC7y-44">
          <mxGeometry width="30" height="30" as="geometry">
            <mxRectangle width="30" height="30" as="alternateBounds" />
          </mxGeometry>
        </mxCell>
        <mxCell id="BNZaZ487fC2I3IFNYC7y-46" value="EgységID" style="shape=partialRectangle;connectable=0;fillColor=none;top=0;left=0;bottom=0;right=0;align=left;spacingLeft=6;overflow=hidden;whiteSpace=wrap;html=1;" vertex="1" parent="BNZaZ487fC2I3IFNYC7y-44">
          <mxGeometry x="30" width="150" height="30" as="geometry">
            <mxRectangle width="150" height="30" as="alternateBounds" />
          </mxGeometry>
        </mxCell>
        <mxCell id="BNZaZ487fC2I3IFNYC7y-14" value="Gyártó" style="shape=table;startSize=30;container=1;collapsible=1;childLayout=tableLayout;fixedRows=1;rowLines=0;fontStyle=1;align=center;resizeLast=1;html=1;" vertex="1" parent="1">
          <mxGeometry x="450" y="-220" width="180" height="210" as="geometry" />
        </mxCell>
        <mxCell id="BNZaZ487fC2I3IFNYC7y-15" value="" style="shape=tableRow;horizontal=0;startSize=0;swimlaneHead=0;swimlaneBody=0;fillColor=none;collapsible=0;dropTarget=0;points=[[0,0.5],[1,0.5]];portConstraint=eastwest;top=0;left=0;right=0;bottom=1;" vertex="1" parent="BNZaZ487fC2I3IFNYC7y-14">
          <mxGeometry y="30" width="180" height="30" as="geometry" />
        </mxCell>
        <mxCell id="BNZaZ487fC2I3IFNYC7y-16" value="PK" style="shape=partialRectangle;connectable=0;fillColor=none;top=0;left=0;bottom=0;right=0;fontStyle=1;overflow=hidden;whiteSpace=wrap;html=1;" vertex="1" parent="BNZaZ487fC2I3IFNYC7y-15">
          <mxGeometry width="30" height="30" as="geometry">
            <mxRectangle width="30" height="30" as="alternateBounds" />
          </mxGeometry>
        </mxCell>
        <mxCell id="BNZaZ487fC2I3IFNYC7y-17" value="adószám" style="shape=partialRectangle;connectable=0;fillColor=none;top=0;left=0;bottom=0;right=0;align=left;spacingLeft=6;fontStyle=5;overflow=hidden;whiteSpace=wrap;html=1;" vertex="1" parent="BNZaZ487fC2I3IFNYC7y-15">
          <mxGeometry x="30" width="150" height="30" as="geometry">
            <mxRectangle width="150" height="30" as="alternateBounds" />
          </mxGeometry>
        </mxCell>
        <mxCell id="BNZaZ487fC2I3IFNYC7y-18" value="" style="shape=tableRow;horizontal=0;startSize=0;swimlaneHead=0;swimlaneBody=0;fillColor=none;collapsible=0;dropTarget=0;points=[[0,0.5],[1,0.5]];portConstraint=eastwest;top=0;left=0;right=0;bottom=0;" vertex="1" parent="BNZaZ487fC2I3IFNYC7y-14">
          <mxGeometry y="60" width="180" height="30" as="geometry" />
        </mxCell>
        <mxCell id="BNZaZ487fC2I3IFNYC7y-19" value="" style="shape=partialRectangle;connectable=0;fillColor=none;top=0;left=0;bottom=0;right=0;editable=1;overflow=hidden;whiteSpace=wrap;html=1;" vertex="1" parent="BNZaZ487fC2I3IFNYC7y-18">
          <mxGeometry width="30" height="30" as="geometry">
            <mxRectangle width="30" height="30" as="alternateBounds" />
          </mxGeometry>
        </mxCell>
        <mxCell id="BNZaZ487fC2I3IFNYC7y-20" value="név,C(30)" style="shape=partialRectangle;connectable=0;fillColor=none;top=0;left=0;bottom=0;right=0;align=left;spacingLeft=6;overflow=hidden;whiteSpace=wrap;html=1;" vertex="1" parent="BNZaZ487fC2I3IFNYC7y-18">
          <mxGeometry x="30" width="150" height="30" as="geometry">
            <mxRectangle width="150" height="30" as="alternateBounds" />
          </mxGeometry>
        </mxCell>
        <mxCell id="BNZaZ487fC2I3IFNYC7y-21" value="" style="shape=tableRow;horizontal=0;startSize=0;swimlaneHead=0;swimlaneBody=0;fillColor=none;collapsible=0;dropTarget=0;points=[[0,0.5],[1,0.5]];portConstraint=eastwest;top=0;left=0;right=0;bottom=0;" vertex="1" parent="BNZaZ487fC2I3IFNYC7y-14">
          <mxGeometry y="90" width="180" height="30" as="geometry" />
        </mxCell>
        <mxCell id="BNZaZ487fC2I3IFNYC7y-22" value="" style="shape=partialRectangle;connectable=0;fillColor=none;top=0;left=0;bottom=0;right=0;editable=1;overflow=hidden;whiteSpace=wrap;html=1;" vertex="1" parent="BNZaZ487fC2I3IFNYC7y-21">
          <mxGeometry width="30" height="30" as="geometry">
            <mxRectangle width="30" height="30" as="alternateBounds" />
          </mxGeometry>
        </mxCell>
        <mxCell id="BNZaZ487fC2I3IFNYC7y-23" value="telephely" style="shape=partialRectangle;connectable=0;fillColor=none;top=0;left=0;bottom=0;right=0;align=left;spacingLeft=6;overflow=hidden;whiteSpace=wrap;html=1;" vertex="1" parent="BNZaZ487fC2I3IFNYC7y-21">
          <mxGeometry x="30" width="150" height="30" as="geometry">
            <mxRectangle width="150" height="30" as="alternateBounds" />
          </mxGeometry>
        </mxCell>
        <mxCell id="BNZaZ487fC2I3IFNYC7y-56" value="" style="shape=tableRow;horizontal=0;startSize=0;swimlaneHead=0;swimlaneBody=0;fillColor=none;collapsible=0;dropTarget=0;points=[[0,0.5],[1,0.5]];portConstraint=eastwest;top=0;left=0;right=0;bottom=0;" vertex="1" parent="BNZaZ487fC2I3IFNYC7y-14">
          <mxGeometry y="120" width="180" height="30" as="geometry" />
        </mxCell>
        <mxCell id="BNZaZ487fC2I3IFNYC7y-57" value="" style="shape=partialRectangle;connectable=0;fillColor=none;top=0;left=0;bottom=0;right=0;editable=1;overflow=hidden;whiteSpace=wrap;html=1;" vertex="1" parent="BNZaZ487fC2I3IFNYC7y-56">
          <mxGeometry width="30" height="30" as="geometry">
            <mxRectangle width="30" height="30" as="alternateBounds" />
          </mxGeometry>
        </mxCell>
        <mxCell id="BNZaZ487fC2I3IFNYC7y-58" value="irszám" style="shape=partialRectangle;connectable=0;fillColor=none;top=0;left=0;bottom=0;right=0;align=left;spacingLeft=6;overflow=hidden;whiteSpace=wrap;html=1;" vertex="1" parent="BNZaZ487fC2I3IFNYC7y-56">
          <mxGeometry x="30" width="150" height="30" as="geometry">
            <mxRectangle width="150" height="30" as="alternateBounds" />
          </mxGeometry>
        </mxCell>
        <mxCell id="BNZaZ487fC2I3IFNYC7y-59" value="" style="shape=tableRow;horizontal=0;startSize=0;swimlaneHead=0;swimlaneBody=0;fillColor=none;collapsible=0;dropTarget=0;points=[[0,0.5],[1,0.5]];portConstraint=eastwest;top=0;left=0;right=0;bottom=0;" vertex="1" parent="BNZaZ487fC2I3IFNYC7y-14">
          <mxGeometry y="150" width="180" height="30" as="geometry" />
        </mxCell>
        <mxCell id="BNZaZ487fC2I3IFNYC7y-60" value="" style="shape=partialRectangle;connectable=0;fillColor=none;top=0;left=0;bottom=0;right=0;editable=1;overflow=hidden;whiteSpace=wrap;html=1;" vertex="1" parent="BNZaZ487fC2I3IFNYC7y-59">
          <mxGeometry width="30" height="30" as="geometry">
            <mxRectangle width="30" height="30" as="alternateBounds" />
          </mxGeometry>
        </mxCell>
        <mxCell id="BNZaZ487fC2I3IFNYC7y-61" value="kozterulet" style="shape=partialRectangle;connectable=0;fillColor=none;top=0;left=0;bottom=0;right=0;align=left;spacingLeft=6;overflow=hidden;whiteSpace=wrap;html=1;" vertex="1" parent="BNZaZ487fC2I3IFNYC7y-59">
          <mxGeometry x="30" width="150" height="30" as="geometry">
            <mxRectangle width="150" height="30" as="alternateBounds" />
          </mxGeometry>
        </mxCell>
        <mxCell id="BNZaZ487fC2I3IFNYC7y-62" value="" style="shape=tableRow;horizontal=0;startSize=0;swimlaneHead=0;swimlaneBody=0;fillColor=none;collapsible=0;dropTarget=0;points=[[0,0.5],[1,0.5]];portConstraint=eastwest;top=0;left=0;right=0;bottom=0;" vertex="1" parent="BNZaZ487fC2I3IFNYC7y-14">
          <mxGeometry y="180" width="180" height="30" as="geometry" />
        </mxCell>
        <mxCell id="BNZaZ487fC2I3IFNYC7y-63" value="" style="shape=partialRectangle;connectable=0;fillColor=none;top=0;left=0;bottom=0;right=0;editable=1;overflow=hidden;whiteSpace=wrap;html=1;" vertex="1" parent="BNZaZ487fC2I3IFNYC7y-62">
          <mxGeometry width="30" height="30" as="geometry">
            <mxRectangle width="30" height="30" as="alternateBounds" />
          </mxGeometry>
        </mxCell>
        <mxCell id="BNZaZ487fC2I3IFNYC7y-64" value="hazszam" style="shape=partialRectangle;connectable=0;fillColor=none;top=0;left=0;bottom=0;right=0;align=left;spacingLeft=6;overflow=hidden;whiteSpace=wrap;html=1;" vertex="1" parent="BNZaZ487fC2I3IFNYC7y-62">
          <mxGeometry x="30" width="150" height="30" as="geometry">
            <mxRectangle width="150" height="30" as="alternateBounds" />
          </mxGeometry>
        </mxCell>
        <mxCell id="BNZaZ487fC2I3IFNYC7y-30" style="edgeStyle=orthogonalEdgeStyle;rounded=0;orthogonalLoop=1;jettySize=auto;html=1;entryX=0;entryY=0.5;entryDx=0;entryDy=0;" edge="1" parent="1" source="BNZaZ487fC2I3IFNYC7y-27" target="BNZaZ487fC2I3IFNYC7y-15">
          <mxGeometry relative="1" as="geometry" />
        </mxCell>
        <mxCell id="BNZaZ487fC2I3IFNYC7y-31" value="Egység" style="shape=table;startSize=30;container=1;collapsible=1;childLayout=tableLayout;fixedRows=1;rowLines=0;fontStyle=1;align=center;resizeLast=1;html=1;" vertex="1" parent="1">
          <mxGeometry x="-60" y="-220" width="180" height="90" as="geometry" />
        </mxCell>
        <mxCell id="BNZaZ487fC2I3IFNYC7y-32" value="" style="shape=tableRow;horizontal=0;startSize=0;swimlaneHead=0;swimlaneBody=0;fillColor=none;collapsible=0;dropTarget=0;points=[[0,0.5],[1,0.5]];portConstraint=eastwest;top=0;left=0;right=0;bottom=1;" vertex="1" parent="BNZaZ487fC2I3IFNYC7y-31">
          <mxGeometry y="30" width="180" height="30" as="geometry" />
        </mxCell>
        <mxCell id="BNZaZ487fC2I3IFNYC7y-33" value="PK" style="shape=partialRectangle;connectable=0;fillColor=none;top=0;left=0;bottom=0;right=0;fontStyle=1;overflow=hidden;whiteSpace=wrap;html=1;" vertex="1" parent="BNZaZ487fC2I3IFNYC7y-32">
          <mxGeometry width="30" height="30" as="geometry">
            <mxRectangle width="30" height="30" as="alternateBounds" />
          </mxGeometry>
        </mxCell>
        <mxCell id="BNZaZ487fC2I3IFNYC7y-34" value="egység_id" style="shape=partialRectangle;connectable=0;fillColor=none;top=0;left=0;bottom=0;right=0;align=left;spacingLeft=6;fontStyle=5;overflow=hidden;whiteSpace=wrap;html=1;" vertex="1" parent="BNZaZ487fC2I3IFNYC7y-32">
          <mxGeometry x="30" width="150" height="30" as="geometry">
            <mxRectangle width="150" height="30" as="alternateBounds" />
          </mxGeometry>
        </mxCell>
        <mxCell id="BNZaZ487fC2I3IFNYC7y-35" value="" style="shape=tableRow;horizontal=0;startSize=0;swimlaneHead=0;swimlaneBody=0;fillColor=none;collapsible=0;dropTarget=0;points=[[0,0.5],[1,0.5]];portConstraint=eastwest;top=0;left=0;right=0;bottom=0;" vertex="1" parent="BNZaZ487fC2I3IFNYC7y-31">
          <mxGeometry y="60" width="180" height="30" as="geometry" />
        </mxCell>
        <mxCell id="BNZaZ487fC2I3IFNYC7y-36" value="" style="shape=partialRectangle;connectable=0;fillColor=none;top=0;left=0;bottom=0;right=0;editable=1;overflow=hidden;whiteSpace=wrap;html=1;" vertex="1" parent="BNZaZ487fC2I3IFNYC7y-35">
          <mxGeometry width="30" height="30" as="geometry">
            <mxRectangle width="30" height="30" as="alternateBounds" />
          </mxGeometry>
        </mxCell>
        <mxCell id="BNZaZ487fC2I3IFNYC7y-37" value="egység" style="shape=partialRectangle;connectable=0;fillColor=none;top=0;left=0;bottom=0;right=0;align=left;spacingLeft=6;overflow=hidden;whiteSpace=wrap;html=1;" vertex="1" parent="BNZaZ487fC2I3IFNYC7y-35">
          <mxGeometry x="30" width="150" height="30" as="geometry">
            <mxRectangle width="150" height="30" as="alternateBounds" />
          </mxGeometry>
        </mxCell>
        <mxCell id="BNZaZ487fC2I3IFNYC7y-55" style="edgeStyle=orthogonalEdgeStyle;rounded=0;orthogonalLoop=1;jettySize=auto;html=1;entryX=0;entryY=0.5;entryDx=0;entryDy=0;" edge="1" parent="1" source="BNZaZ487fC2I3IFNYC7y-32" target="BNZaZ487fC2I3IFNYC7y-44">
          <mxGeometry relative="1" as="geometry" />
        </mxCell>
        <mxCell id="BNZaZ487fC2I3IFNYC7y-65" value="A-T" style="shape=table;startSize=30;container=1;collapsible=1;childLayout=tableLayout;fixedRows=1;rowLines=0;fontStyle=1;align=center;resizeLast=1;html=1;whiteSpace=wrap;" vertex="1" parent="1">
          <mxGeometry x="180" y="-460" width="180" height="90" as="geometry" />
        </mxCell>
        <mxCell id="BNZaZ487fC2I3IFNYC7y-66" value="" style="shape=tableRow;horizontal=0;startSize=0;swimlaneHead=0;swimlaneBody=0;fillColor=none;collapsible=0;dropTarget=0;points=[[0,0.5],[1,0.5]];portConstraint=eastwest;top=0;left=0;right=0;bottom=0;html=1;" vertex="1" parent="BNZaZ487fC2I3IFNYC7y-65">
          <mxGeometry y="30" width="180" height="30" as="geometry" />
        </mxCell>
        <mxCell id="BNZaZ487fC2I3IFNYC7y-67" value="PK,FK1" style="shape=partialRectangle;connectable=0;fillColor=none;top=0;left=0;bottom=0;right=0;fontStyle=1;overflow=hidden;html=1;whiteSpace=wrap;" vertex="1" parent="BNZaZ487fC2I3IFNYC7y-66">
          <mxGeometry width="60" height="30" as="geometry">
            <mxRectangle width="60" height="30" as="alternateBounds" />
          </mxGeometry>
        </mxCell>
        <mxCell id="BNZaZ487fC2I3IFNYC7y-68" value="AlkatrészID" style="shape=partialRectangle;connectable=0;fillColor=none;top=0;left=0;bottom=0;right=0;align=left;spacingLeft=6;fontStyle=5;overflow=hidden;html=1;whiteSpace=wrap;" vertex="1" parent="BNZaZ487fC2I3IFNYC7y-66">
          <mxGeometry x="60" width="120" height="30" as="geometry">
            <mxRectangle width="120" height="30" as="alternateBounds" />
          </mxGeometry>
        </mxCell>
        <mxCell id="BNZaZ487fC2I3IFNYC7y-69" value="" style="shape=tableRow;horizontal=0;startSize=0;swimlaneHead=0;swimlaneBody=0;fillColor=none;collapsible=0;dropTarget=0;points=[[0,0.5],[1,0.5]];portConstraint=eastwest;top=0;left=0;right=0;bottom=1;html=1;" vertex="1" parent="BNZaZ487fC2I3IFNYC7y-65">
          <mxGeometry y="60" width="180" height="30" as="geometry" />
        </mxCell>
        <mxCell id="BNZaZ487fC2I3IFNYC7y-70" value="PK,FK2" style="shape=partialRectangle;connectable=0;fillColor=none;top=0;left=0;bottom=0;right=0;fontStyle=1;overflow=hidden;html=1;whiteSpace=wrap;" vertex="1" parent="BNZaZ487fC2I3IFNYC7y-69">
          <mxGeometry width="60" height="30" as="geometry">
            <mxRectangle width="60" height="30" as="alternateBounds" />
          </mxGeometry>
        </mxCell>
        <mxCell id="BNZaZ487fC2I3IFNYC7y-71" value="TermékID" style="shape=partialRectangle;connectable=0;fillColor=none;top=0;left=0;bottom=0;right=0;align=left;spacingLeft=6;fontStyle=5;overflow=hidden;html=1;whiteSpace=wrap;" vertex="1" parent="BNZaZ487fC2I3IFNYC7y-69">
          <mxGeometry x="60" width="120" height="30" as="geometry">
            <mxRectangle width="120" height="30" as="alternateBounds" />
          </mxGeometry>
        </mxCell>
        <mxCell id="BNZaZ487fC2I3IFNYC7y-78" style="edgeStyle=orthogonalEdgeStyle;rounded=0;orthogonalLoop=1;jettySize=auto;html=1;entryX=1;entryY=0.5;entryDx=0;entryDy=0;" edge="1" parent="1" source="BNZaZ487fC2I3IFNYC7y-69" target="BNZaZ487fC2I3IFNYC7y-2">
          <mxGeometry relative="1" as="geometry" />
        </mxCell>
        <mxCell id="BNZaZ487fC2I3IFNYC7y-79" value="Alkatrész" style="shape=table;startSize=30;container=1;collapsible=1;childLayout=tableLayout;fixedRows=1;rowLines=0;fontStyle=1;align=center;resizeLast=1;html=1;" vertex="1" parent="1">
          <mxGeometry x="174" y="-590" width="180" height="90" as="geometry" />
        </mxCell>
        <mxCell id="BNZaZ487fC2I3IFNYC7y-80" value="" style="shape=tableRow;horizontal=0;startSize=0;swimlaneHead=0;swimlaneBody=0;fillColor=none;collapsible=0;dropTarget=0;points=[[0,0.5],[1,0.5]];portConstraint=eastwest;top=0;left=0;right=0;bottom=1;" vertex="1" parent="BNZaZ487fC2I3IFNYC7y-79">
          <mxGeometry y="30" width="180" height="30" as="geometry" />
        </mxCell>
        <mxCell id="BNZaZ487fC2I3IFNYC7y-81" value="PK" style="shape=partialRectangle;connectable=0;fillColor=none;top=0;left=0;bottom=0;right=0;fontStyle=1;overflow=hidden;whiteSpace=wrap;html=1;" vertex="1" parent="BNZaZ487fC2I3IFNYC7y-80">
          <mxGeometry width="30" height="30" as="geometry">
            <mxRectangle width="30" height="30" as="alternateBounds" />
          </mxGeometry>
        </mxCell>
        <mxCell id="BNZaZ487fC2I3IFNYC7y-82" value="alk_id" style="shape=partialRectangle;connectable=0;fillColor=none;top=0;left=0;bottom=0;right=0;align=left;spacingLeft=6;fontStyle=5;overflow=hidden;whiteSpace=wrap;html=1;" vertex="1" parent="BNZaZ487fC2I3IFNYC7y-80">
          <mxGeometry x="30" width="150" height="30" as="geometry">
            <mxRectangle width="150" height="30" as="alternateBounds" />
          </mxGeometry>
        </mxCell>
        <mxCell id="BNZaZ487fC2I3IFNYC7y-83" value="" style="shape=tableRow;horizontal=0;startSize=0;swimlaneHead=0;swimlaneBody=0;fillColor=none;collapsible=0;dropTarget=0;points=[[0,0.5],[1,0.5]];portConstraint=eastwest;top=0;left=0;right=0;bottom=0;" vertex="1" parent="BNZaZ487fC2I3IFNYC7y-79">
          <mxGeometry y="60" width="180" height="30" as="geometry" />
        </mxCell>
        <mxCell id="BNZaZ487fC2I3IFNYC7y-84" value="" style="shape=partialRectangle;connectable=0;fillColor=none;top=0;left=0;bottom=0;right=0;editable=1;overflow=hidden;whiteSpace=wrap;html=1;" vertex="1" parent="BNZaZ487fC2I3IFNYC7y-83">
          <mxGeometry width="30" height="30" as="geometry">
            <mxRectangle width="30" height="30" as="alternateBounds" />
          </mxGeometry>
        </mxCell>
        <mxCell id="BNZaZ487fC2I3IFNYC7y-85" value="nev/tipus" style="shape=partialRectangle;connectable=0;fillColor=none;top=0;left=0;bottom=0;right=0;align=left;spacingLeft=6;overflow=hidden;whiteSpace=wrap;html=1;" vertex="1" parent="BNZaZ487fC2I3IFNYC7y-83">
          <mxGeometry x="30" width="150" height="30" as="geometry">
            <mxRectangle width="150" height="30" as="alternateBounds" />
          </mxGeometry>
        </mxCell>
        <mxCell id="BNZaZ487fC2I3IFNYC7y-92" style="edgeStyle=orthogonalEdgeStyle;rounded=0;orthogonalLoop=1;jettySize=auto;html=1;entryX=1;entryY=0.5;entryDx=0;entryDy=0;" edge="1" parent="1" source="BNZaZ487fC2I3IFNYC7y-80" target="BNZaZ487fC2I3IFNYC7y-66">
          <mxGeometry relative="1" as="geometry" />
        </mxCell>
      </root>
    </mxGraphModel>
  </diagram>
</mxfile>
